<?xml version="1.0" encoding="UTF-8"?>
<!DOCTYPE svg PUBLIC "-//W3C//DTD SVG 1.1//EN" "http://www.w3.org/Graphics/SVG/1.1/DTD/svg11.dtd">
<!-- Creator: CorelDRAW -->
<svg xmlns="http://www.w3.org/2000/svg" xml:space="preserve" width="43.6357mm" height="42.2182mm" version="1.1" style="shape-rendering:geometricPrecision; text-rendering:geometricPrecision; image-rendering:optimizeQuality; fill-rule:evenodd; clip-rule:evenodd"
viewBox="0 0 193.21 186.93"
 xmlns:xlink="http://www.w3.org/1999/xlink"
 xmlns:xodm="http://www.corel.com/coreldraw/odm/2003">
 <defs>
  <style type="text/css">
   <![CDATA[
    .fil0 {fill:black}
   ]]>
  </style>
 </defs>
 <g id="Camada_x0020_1">
  <metadata id="CorelCorpID_0Corel-Layer"/>
  <g id="_2547830181984">
   <path class="fil0" d="M21.78 162.72c0,-0.92 1.06,-1.98 1.98,-1.98l36.82 0c3.48,0 2.71,3.56 0.79,3.56l-38.01 0c-0.93,0 -1.58,-0.66 -1.58,-1.58zm132.63 8.31c-1.65,0 -9.11,-7.45 -9.11,-9.11 0,-1.29 0.94,-1.58 1.98,-1.58 1.23,0 6.01,5.26 6.73,6.33 1.75,-1.17 10.44,-10.24 13.16,-12.97 2.23,-2.23 3.03,-4.06 5.44,-4.06 1.7,0 1.57,1.94 0.9,2.84l-13.47 13.49c-1.01,1.01 -4.36,5.05 -5.64,5.05zm-57.41 -20.19l-73.64 0c-2.48,0 -1.71,-3.56 0.4,-3.56l72.85 0c2.04,0 2.66,3.56 0.4,3.56zm-1.98 -13.07l-70.47 0c-3.98,0 -3.02,-3.96 -0.79,-3.96l72.85 0c1.91,0 3.59,3.96 -1.58,3.96zm-2.38 -31.67l54.24 0 0 12.27 -54.24 0 0 -12.27zm-33.26 0l29.3 0 0 12.27 -29.3 0 0 -12.27zm-33.65 0l29.3 0 0 12.27 -29.3 0 0 -12.27zm66.91 -16.23l54.24 0 0 11.88 -54.24 0 0 -11.88zm-33.26 0l29.3 0 0 11.88 -29.3 0 0 -11.88zm-33.65 0l29.3 0 0 11.88 -29.3 0 0 -11.88zm66.91 -16.63l54.24 0 0 12.27 -54.24 0 0 -12.27zm-33.26 0l29.3 0 0 12.27 -29.3 0 0 -12.27zm-33.65 0l29.3 0 0 12.27 -29.3 0 0 -12.27zm66.91 -16.23l54.24 0 0 12.27 -54.24 0 0 -12.27zm-33.26 0l29.3 0 0 12.27 -29.3 0 0 -12.27zm-33.65 0l29.3 0 0 12.27 -29.3 0 0 -12.27zm66.91 -16.23l54.24 0 0 12.27 -54.24 0 0 -12.27zm-33.26 0l29.3 0 0 12.27 -29.3 0 0 -12.27zm-33.65 0l29.3 0 0 12.27 -29.3 0 0 -12.27zm0 -16.23l121.15 0 0 11.88 -121.15 0 0 -11.88zm-12.67 -19.4l0 174.6c0,1.44 0.33,2.21 0.79,3.17 -3.67,0.31 -2.5,3.96 -0.79,3.96l165.49 0c1.65,0 1.58,-1.47 1.58,-2.38 0,-2.55 -7.28,-1.58 -9.9,-1.58 2.98,-2.59 6.5,-3.08 10.68,-10.31 2.62,-4.52 4.13,-10.12 2.97,-16.8 -1.91,-10.93 -12.2,-20.01 -22.35,-20.01 -7.8,0 -13.9,1.16 -19.61,7.31 -8.19,8.82 -9.46,22.37 -2.34,31.67 0.77,1.01 1.13,1.44 1.92,2.44 0.77,0.97 1.41,1.27 2.31,2.05l4.01 2.72c0.53,0.28 0.34,0.16 0.76,0.43 0.76,0.48 0.28,0.15 0.68,0.5l-21.38 0c0.81,-1.2 7.13,-7.09 7.13,-7.52 0,-1.44 -1.55,-3.68 -2.14,-5.38 -3.57,-10.34 -0.33,-15.5 -0.24,-19.56 -3.95,0 -7.52,0.59 -7.52,5.54l0 26.92 -3.56 0 0 -28.11c0,-2.89 1.94,-5.26 3.78,-6.52 2.64,-1.81 5.17,-1.4 9.29,-1.4 2.47,-4.66 5.21,-7.45 9.5,-10.3 3.6,-2.39 9.47,-4.74 15.45,-4.74l0 -127.88c0,-1.99 -1.97,-3.96 -3.96,-3.96l-138.18 0c-2.68,0 -4.36,2.4 -4.36,5.15z"/>
   <path class="fil0" d="M183.71 184.89c1.36,2.57 0.72,1.98 7.52,1.98 1.29,0 1.53,-1.12 1.98,-1.98 -1.36,-2.57 -0.72,-1.98 -7.52,-1.98 -1.29,0 -1.53,1.12 -1.98,1.98z"/>
   <path class="fil0" d="M-0 185.29c1.33,1.99 1.25,1.58 5.15,1.58 1.07,0 1.09,-0.19 1.98,-0.4 0.95,-3.98 -0.84,-3.56 -5.15,-3.56 -1.37,0 -1.72,1.25 -1.98,2.38z"/>
  </g>
 </g>
</svg>
